<svg xmlns="http://www.w3.org/2000/svg" xmlns:xlink="http://www.w3.org/1999/xlink" width="400" zoomAndPan="magnify" viewBox="0 0 300 299.999988" height="400" preserveAspectRatio="xMidYMid meet" version="1.0"><defs><clipPath id="2154666c49"><path d="M 15 6.953125 L 211 6.953125 L 211 292.703125 L 15 292.703125 Z M 15 6.953125 " clip-rule="nonzero"/></clipPath></defs><path fill="#050a30" d="M 125.507812 252.253906 L 100.488281 252.253906 C 99.925781 252.253906 99.371094 252.3125 98.820312 252.421875 C 98.265625 252.53125 97.730469 252.691406 97.210938 252.910156 C 96.691406 253.125 96.199219 253.386719 95.730469 253.699219 C 95.265625 254.011719 94.832031 254.367188 94.433594 254.761719 C 94.035156 255.160156 93.679688 255.59375 93.367188 256.058594 C 93.054688 256.527344 92.792969 257.019531 92.578125 257.539062 C 92.359375 258.058594 92.199219 258.59375 92.089844 259.144531 C 91.976562 259.695312 91.921875 260.25 91.921875 260.8125 L 91.921875 267.753906 C 91.921875 268.316406 91.976562 268.875 92.085938 269.425781 C 92.195312 269.976562 92.359375 270.511719 92.574219 271.03125 C 92.789062 271.550781 93.054688 272.042969 93.367188 272.511719 C 93.679688 272.980469 94.035156 273.410156 94.429688 273.808594 C 94.828125 274.207031 95.261719 274.5625 95.730469 274.875 C 96.195312 275.1875 96.691406 275.449219 97.210938 275.667969 C 97.730469 275.882812 98.265625 276.042969 98.816406 276.15625 C 99.371094 276.265625 99.925781 276.320312 100.488281 276.320312 L 125.507812 276.320312 C 126.070312 276.320312 126.625 276.265625 127.179688 276.152344 C 127.730469 276.042969 128.265625 275.878906 128.785156 275.664062 C 129.304688 275.449219 129.796875 275.1875 130.265625 274.875 C 130.730469 274.5625 131.164062 274.207031 131.5625 273.808594 C 131.957031 273.414062 132.3125 272.980469 132.625 272.511719 C 132.9375 272.046875 133.203125 271.554688 133.417969 271.035156 C 133.632812 270.515625 133.796875 269.980469 133.90625 269.429688 C 134.019531 268.882812 134.074219 268.324219 134.074219 267.761719 L 134.074219 260.8125 C 134.074219 260.25 134.019531 259.695312 133.90625 259.144531 C 133.796875 258.59375 133.632812 258.058594 133.417969 257.539062 C 133.203125 257.019531 132.9375 256.527344 132.625 256.0625 C 132.3125 255.59375 131.957031 255.164062 131.5625 254.765625 C 131.164062 254.367188 130.730469 254.015625 130.265625 253.703125 C 129.796875 253.390625 129.304688 253.125 128.785156 252.910156 C 128.265625 252.695312 127.730469 252.53125 127.179688 252.421875 C 126.625 252.3125 126.070312 252.257812 125.507812 252.253906 Z M 126.113281 267.753906 C 126.113281 267.921875 126.054688 268.066406 125.933594 268.183594 C 125.816406 268.300781 125.675781 268.359375 125.507812 268.359375 L 100.488281 268.359375 C 100.324219 268.359375 100.179688 268.300781 100.0625 268.183594 C 99.945312 268.066406 99.882812 267.921875 99.882812 267.753906 L 99.882812 260.8125 C 99.882812 260.644531 99.945312 260.503906 100.0625 260.386719 C 100.179688 260.265625 100.324219 260.207031 100.488281 260.207031 L 125.507812 260.207031 C 125.675781 260.207031 125.816406 260.265625 125.933594 260.386719 C 126.054688 260.503906 126.113281 260.644531 126.113281 260.8125 Z M 126.113281 267.753906 " fill-opacity="1" fill-rule="nonzero"/><g clip-path="url(#2154666c49)"><path fill="#365b6d" d="M 208.40625 198.820312 L 206.8125 199.058594 L 205.117188 199.28125 L 203.523438 199.480469 L 201.859375 199.652344 L 200.265625 199.8125 L 198.632812 199.941406 L 196.96875 200.050781 L 195.378906 200.132812 L 193.699219 200.195312 L 192.105469 200.234375 L 188.140625 200.234375 L 188.140625 246.097656 L 37.9375 246.097656 L 37.9375 28.785156 L 188.058594 28.785156 L 188.058594 83.015625 L 189.921875 83.015625 C 190.925781 83.015625 191.929688 83.015625 192.933594 83.015625 L 193.882812 83.015625 C 194.582031 83.015625 195.273438 83.0625 195.976562 83.101562 L 197.042969 83.160156 C 197.71875 83.160156 198.402344 83.246094 199.082031 83.300781 L 200.066406 83.375 C 200.925781 83.445312 201.78125 83.53125 202.632812 83.621094 L 203.046875 83.621094 C 204.03125 83.730469 205.011719 83.851562 205.992188 83.984375 L 206.867188 84.113281 C 207.5625 84.207031 208.253906 84.3125 208.945312 84.421875 L 209.988281 84.597656 L 210.863281 84.75 L 210.863281 28.285156 C 210.859375 27.585938 210.824219 26.886719 210.75 26.191406 C 210.679688 25.496094 210.570312 24.804688 210.433594 24.121094 C 210.292969 23.4375 210.121094 22.757812 209.914062 22.089844 C 209.707031 21.421875 209.46875 20.765625 209.199219 20.121094 C 208.925781 19.476562 208.625 18.847656 208.292969 18.230469 C 207.960938 17.617188 207.597656 17.019531 207.207031 16.441406 C 206.816406 15.859375 206.398438 15.300781 205.953125 14.761719 C 205.507812 14.222656 205.035156 13.707031 204.539062 13.214844 C 204.042969 12.71875 203.523438 12.253906 202.980469 11.8125 C 202.4375 11.367188 201.875 10.953125 201.292969 10.566406 C 200.710938 10.179688 200.109375 9.824219 199.492188 9.496094 C 198.875 9.164062 198.242188 8.867188 197.59375 8.601562 C 196.949219 8.335938 196.289062 8.101562 195.617188 7.898438 C 194.949219 7.695312 194.269531 7.527344 193.582031 7.394531 C 192.898438 7.257812 192.207031 7.15625 191.507812 7.085938 C 190.8125 7.019531 190.113281 6.984375 189.414062 6.984375 L 36.535156 6.984375 C 35.835938 6.984375 35.132812 7.019531 34.4375 7.089844 C 33.738281 7.160156 33.046875 7.261719 32.359375 7.402344 C 31.671875 7.539062 30.992188 7.707031 30.320312 7.910156 C 29.648438 8.117188 28.992188 8.351562 28.34375 8.621094 C 27.695312 8.890625 27.0625 9.1875 26.445312 9.519531 C 25.824219 9.847656 25.222656 10.207031 24.640625 10.597656 C 24.058594 10.988281 23.496094 11.40625 22.953125 11.847656 C 22.410156 12.292969 21.894531 12.761719 21.398438 13.257812 C 20.902344 13.753906 20.429688 14.273438 19.984375 14.8125 C 19.539062 15.355469 19.125 15.917969 18.734375 16.5 C 18.34375 17.082031 17.984375 17.679688 17.652344 18.300781 C 17.320312 18.917969 17.023438 19.546875 16.753906 20.195312 C 16.484375 20.84375 16.25 21.5 16.042969 22.171875 C 15.839844 22.839844 15.667969 23.519531 15.53125 24.207031 C 15.394531 24.894531 15.292969 25.585938 15.222656 26.28125 C 15.152344 26.980469 15.117188 27.679688 15.117188 28.378906 L 15.117188 271.359375 C 15.117188 272.058594 15.152344 272.757812 15.222656 273.453125 C 15.292969 274.152344 15.394531 274.84375 15.53125 275.53125 C 15.667969 276.214844 15.839844 276.894531 16.042969 277.566406 C 16.25 278.234375 16.484375 278.894531 16.753906 279.542969 C 17.023438 280.1875 17.320312 280.820312 17.652344 281.4375 C 17.984375 282.054688 18.34375 282.65625 18.734375 283.238281 C 19.125 283.820312 19.539062 284.382812 19.984375 284.921875 C 20.429688 285.464844 20.902344 285.984375 21.398438 286.476562 C 21.894531 286.972656 22.410156 287.445312 22.953125 287.886719 C 23.496094 288.332031 24.058594 288.75 24.640625 289.136719 C 25.222656 289.527344 25.824219 289.886719 26.445312 290.21875 C 27.0625 290.546875 27.695312 290.847656 28.34375 291.117188 C 28.992188 291.386719 29.648438 291.621094 30.320312 291.824219 C 30.992188 292.027344 31.671875 292.199219 32.359375 292.335938 C 33.046875 292.472656 33.738281 292.578125 34.4375 292.644531 C 35.132812 292.714844 35.835938 292.75 36.535156 292.75 L 189.414062 292.75 C 190.117188 292.75 190.816406 292.714844 191.511719 292.644531 C 192.210938 292.578125 192.902344 292.472656 193.589844 292.335938 C 194.277344 292.199219 194.957031 292.027344 195.628906 291.824219 C 196.300781 291.621094 196.960938 291.386719 197.605469 291.117188 C 198.253906 290.847656 198.886719 290.546875 199.507812 290.21875 C 200.125 289.886719 200.726562 289.527344 201.308594 289.136719 C 201.890625 288.75 202.453125 288.332031 202.996094 287.886719 C 203.539062 287.445312 204.054688 286.972656 204.550781 286.476562 C 205.046875 285.984375 205.519531 285.464844 205.964844 284.921875 C 206.410156 284.382812 206.824219 283.820312 207.214844 283.238281 C 207.605469 282.65625 207.964844 282.054688 208.296875 281.4375 C 208.628906 280.820312 208.925781 280.1875 209.195312 279.542969 C 209.464844 278.894531 209.703125 278.234375 209.90625 277.566406 C 210.109375 276.894531 210.28125 276.214844 210.417969 275.53125 C 210.554688 274.84375 210.65625 274.152344 210.726562 273.453125 C 210.796875 272.757812 210.832031 272.058594 210.832031 271.359375 L 210.832031 198.421875 L 210.078125 198.539062 Z M 208.40625 198.820312 " fill-opacity="1" fill-rule="nonzero"/></g><path fill="#289dd2" d="M 89.382812 135.75 C 96.328125 126.433594 104.324219 118.125 113.371094 110.828125 C 114.582031 109.851562 115.796875 108.902344 117.019531 107.980469 L 117.21875 107.828125 C 118.398438 106.9375 119.582031 106.078125 120.777344 105.246094 L 121.136719 104.988281 C 122.289062 104.195312 123.460938 103.398438 124.632812 102.605469 L 125.09375 102.300781 C 126.25 101.554688 127.402344 100.839844 128.574219 100.128906 L 129.097656 99.8125 C 130.25 99.128906 131.414062 98.464844 132.585938 97.816406 L 133.144531 97.507812 C 134.3125 96.863281 135.484375 96.25 136.671875 95.652344 L 137.226562 95.367188 C 138.421875 94.777344 139.617188 94.199219 140.820312 93.648438 L 141.34375 93.410156 C 142.566406 92.878906 143.792969 92.351562 145.023438 91.820312 L 145.46875 91.636719 C 146.734375 91.121094 148.007812 90.617188 149.292969 90.148438 L 149.601562 90.039062 C 150.929688 89.550781 152.257812 89.09375 153.582031 88.664062 L 153.664062 88.664062 C 155.011719 88.226562 156.363281 87.820312 157.722656 87.4375 L 157.96875 87.367188 C 159.292969 86.992188 160.621094 86.648438 161.953125 86.324219 L 162.382812 86.222656 C 163.675781 85.914062 164.984375 85.628906 166.300781 85.363281 L 166.832031 85.25 C 168.121094 84.996094 169.421875 84.765625 170.726562 84.550781 L 171.316406 84.457031 C 172.613281 84.257812 173.910156 84.074219 175.21875 83.914062 L 175.839844 83.835938 C 177.144531 83.683594 178.457031 83.546875 179.78125 83.4375 L 180.058594 83.4375 L 180.058594 36.738281 L 45.898438 36.738281 L 45.898438 238.144531 L 180.097656 238.144531 L 180.097656 199.835938 C 179.730469 199.835938 179.367188 199.773438 179.007812 199.734375 C 178.648438 199.695312 178.164062 199.660156 177.742188 199.613281 L 176.277344 199.457031 L 175.035156 199.304688 L 173.59375 199.105469 L 172.359375 198.929688 L 170.957031 198.707031 L 169.730469 198.5 L 168.363281 198.253906 L 167.144531 198.023438 L 165.796875 197.746094 C 165.398438 197.65625 165 197.578125 164.59375 197.484375 L 163.289062 197.179688 L 162.085938 196.902344 L 160.820312 196.574219 L 159.617188 196.265625 L 158.398438 195.925781 L 157.199219 195.582031 C 156.800781 195.46875 156.402344 195.34375 156.027344 195.222656 L 154.808594 194.859375 L 153.726562 194.5 L 152.46875 194.085938 L 151.488281 193.746094 L 150.167969 193.277344 L 149.371094 192.988281 C 147.414062 192.257812 145.484375 191.484375 143.613281 190.675781 L 143.527344 190.636719 L 141.988281 189.953125 L 141.394531 189.679688 C 140.914062 189.464844 140.453125 189.242188 139.984375 189.019531 L 139.296875 188.703125 L 137.960938 188.042969 L 137.246094 187.683594 L 135.96875 187.03125 L 135.238281 186.652344 L 134.003906 185.984375 L 133.261719 185.585938 L 132.070312 184.910156 L 131.328125 184.496094 C 130.9375 184.273438 130.53125 184.042969 130.171875 183.8125 C 129.925781 183.667969 129.679688 183.535156 129.441406 183.382812 C 129.058594 183.160156 128.644531 182.929688 128.308594 182.699219 L 127.59375 182.253906 L 126.488281 181.554688 L 125.785156 181.109375 L 124.710938 180.40625 L 124.019531 179.945312 L 122.96875 179.238281 L 122.289062 178.769531 L 121.273438 178.054688 L 120.609375 177.585938 C 120.277344 177.347656 119.941406 177.105469 119.617188 176.859375 L 118.960938 176.382812 L 118 175.660156 L 117.355469 175.183594 L 116.414062 174.449219 L 115.792969 173.972656 L 114.878906 173.242188 L 114.273438 172.757812 L 113.382812 172.023438 L 112.792969 171.539062 L 111.921875 170.808594 L 111.351562 170.324219 L 110.515625 169.589844 L 109.957031 169.105469 L 109.160156 168.375 L 108.621094 167.898438 L 107.824219 167.167969 L 107.304688 166.6875 L 106.507812 165.964844 L 106 165.488281 L 105.257812 164.78125 L 104.765625 164.304688 L 104.050781 163.59375 L 103.570312 163.125 L 102.878906 162.425781 L 102.425781 161.964844 C 102.195312 161.734375 101.972656 161.503906 101.746094 161.265625 L 101.308594 160.820312 L 100.65625 160.136719 L 100.234375 159.683594 L 99.613281 159.015625 L 99.207031 158.578125 L 98.609375 157.917969 L 98.210938 157.480469 L 97.648438 156.84375 L 97.273438 156.414062 C 97.082031 156.207031 96.898438 155.992188 96.714844 155.785156 L 96.363281 155.378906 L 95.832031 154.757812 L 95.496094 154.363281 L 94.996094 153.765625 L 94.675781 153.375 L 94.191406 152.796875 C 94.097656 152.667969 93.992188 152.546875 93.898438 152.429688 L 93.433594 151.855469 L 93.148438 151.5 L 92.71875 150.957031 L 92.449219 150.609375 L 92.042969 150.089844 L 91.785156 149.757812 L 91.40625 149.265625 L 91.171875 148.953125 L 90.808594 148.476562 L 90.585938 148.175781 L 90.265625 147.738281 L 90.035156 147.417969 L 89.75 147.027344 L 89.542969 146.742188 L 89.277344 146.367188 L 89.085938 146.105469 L 88.847656 145.765625 L 88.671875 145.511719 C 88.601562 145.40625 88.523438 145.304688 88.457031 145.199219 L 88.308594 144.984375 L 88.109375 144.691406 L 87.980469 144.5 L 87.804688 144.238281 L 87.6875 144.054688 L 87.542969 143.839844 L 87.429688 143.664062 L 87.320312 143.488281 L 87.136719 143.210938 L 85.765625 141.054688 L 87.152344 138.917969 C 87.414062 138.542969 88.15625 137.429688 89.382812 135.75 Z M 89.382812 135.75 " fill-opacity="1" fill-rule="nonzero"/><path fill="#5cb6f9" d="M 213.984375 93.585938 C 208.261719 92.320312 202.472656 91.523438 196.621094 91.199219 C 195.417969 91.128906 194.230469 91.0625 192.996094 91.03125 C 191.976562 91.03125 190.949219 91.03125 189.929688 91.03125 C 188.15625 91.03125 186.308594 91.082031 184.277344 91.175781 C 132.664062 93.785156 102.265625 131.617188 95.339844 141.191406 C 102.589844 151.640625 132.394531 189.570312 184.285156 192.234375 L 185.082031 192.273438 C 186.238281 192.320312 187.382812 192.359375 188.53125 192.378906 C 197.125 192.492188 205.617188 191.621094 214.011719 189.769531 C 242.5625 183.515625 268.25 165.996094 284.875 141.519531 C 278.855469 133.054688 254.707031 102.683594 213.984375 93.585938 Z M 190.894531 188.335938 C 189.386719 188.335938 187.882812 188.261719 186.382812 188.117188 C 184.882812 187.96875 183.390625 187.746094 181.914062 187.453125 C 180.433594 187.160156 178.972656 186.792969 177.53125 186.355469 C 176.085938 185.917969 174.667969 185.414062 173.277344 184.835938 C 171.882812 184.261719 170.523438 183.617188 169.191406 182.90625 C 167.863281 182.195312 166.570312 181.425781 165.316406 180.585938 C 164.0625 179.75 162.855469 178.855469 161.6875 177.898438 C 160.523438 176.945312 159.40625 175.933594 158.339844 174.867188 C 157.273438 173.804688 156.261719 172.6875 155.304688 171.523438 C 154.351562 170.359375 153.453125 169.152344 152.613281 167.898438 C 151.777344 166.648438 151.003906 165.359375 150.292969 164.03125 C 149.582031 162.703125 148.9375 161.339844 148.359375 159.949219 C 147.785156 158.558594 147.277344 157.140625 146.839844 155.703125 C 146.402344 154.261719 146.035156 152.800781 145.742188 151.324219 C 145.445312 149.847656 145.226562 148.359375 145.078125 146.859375 C 144.929688 145.359375 144.855469 143.859375 144.855469 142.351562 C 144.855469 140.847656 144.929688 139.34375 145.078125 137.84375 C 145.226562 136.347656 145.445312 134.859375 145.742188 133.382812 C 146.035156 131.90625 146.402344 130.445312 146.839844 129.003906 C 147.277344 127.5625 147.785156 126.148438 148.359375 124.753906 C 148.9375 123.363281 149.582031 122.003906 150.292969 120.675781 C 151.003906 119.347656 151.777344 118.058594 152.613281 116.804688 C 153.453125 115.554688 154.351562 114.34375 155.304688 113.179688 C 156.261719 112.015625 157.273438 110.902344 158.339844 109.835938 C 159.40625 108.773438 160.523438 107.761719 161.6875 106.808594 C 162.855469 105.851562 164.0625 104.957031 165.316406 104.117188 C 166.570312 103.28125 167.863281 102.507812 169.191406 101.796875 C 170.523438 101.089844 171.882812 100.445312 173.277344 99.871094 C 174.667969 99.292969 176.085938 98.785156 177.53125 98.347656 C 178.972656 97.910156 180.433594 97.546875 181.914062 97.253906 C 183.390625 96.957031 184.882812 96.738281 186.382812 96.589844 C 187.882812 96.441406 189.386719 96.367188 190.894531 96.367188 C 192.402344 96.367188 193.90625 96.441406 195.40625 96.589844 C 196.90625 96.738281 198.398438 96.957031 199.875 97.253906 C 201.355469 97.546875 202.816406 97.910156 204.257812 98.347656 C 205.703125 98.785156 207.121094 99.292969 208.511719 99.871094 C 209.90625 100.445312 211.269531 101.089844 212.597656 101.796875 C 213.925781 102.507812 215.21875 103.28125 216.472656 104.117188 C 217.726562 104.957031 218.9375 105.851562 220.101562 106.808594 C 221.265625 107.761719 222.382812 108.773438 223.449219 109.835938 C 224.515625 110.902344 225.527344 112.015625 226.484375 113.179688 C 227.441406 114.34375 228.335938 115.554688 229.175781 116.804688 C 230.011719 118.058594 230.785156 119.347656 231.496094 120.675781 C 232.207031 122.003906 232.851562 123.363281 233.429688 124.753906 C 234.007812 126.148438 234.511719 127.5625 234.953125 129.003906 C 235.390625 130.445312 235.753906 131.90625 236.050781 133.382812 C 236.34375 134.859375 236.5625 136.347656 236.710938 137.84375 C 236.859375 139.34375 236.933594 140.847656 236.933594 142.351562 C 236.933594 143.859375 236.855469 145.359375 236.707031 146.859375 C 236.558594 148.359375 236.335938 149.84375 236.039062 151.320312 C 235.742188 152.796875 235.375 154.257812 234.9375 155.699219 C 234.5 157.136719 233.992188 158.554688 233.414062 159.945312 C 232.835938 161.335938 232.191406 162.695312 231.480469 164.023438 C 230.765625 165.351562 229.992188 166.640625 229.15625 167.890625 C 228.316406 169.144531 227.417969 170.351562 226.460938 171.515625 C 225.503906 172.679688 224.492188 173.792969 223.425781 174.859375 C 222.359375 175.921875 221.246094 176.933594 220.078125 177.886719 C 218.914062 178.84375 217.703125 179.738281 216.453125 180.574219 C 215.199219 181.414062 213.90625 182.1875 212.578125 182.894531 C 211.246094 183.605469 209.886719 184.25 208.492188 184.828125 C 207.101562 185.402344 205.683594 185.910156 204.242188 186.347656 C 202.796875 186.785156 201.335938 187.152344 199.859375 187.445312 C 198.378906 187.742188 196.890625 187.964844 195.390625 188.113281 C 193.890625 188.261719 192.386719 188.335938 190.878906 188.335938 Z M 190.894531 188.335938 " fill-opacity="1" fill-rule="nonzero"/><path fill="#cae8ff" d="M 228.957031 142.351562 C 228.957031 143.597656 228.894531 144.839844 228.773438 146.082031 C 228.648438 147.320312 228.46875 148.550781 228.222656 149.773438 C 227.980469 150.992188 227.679688 152.199219 227.316406 153.394531 C 226.953125 154.585938 226.535156 155.757812 226.058594 156.90625 C 225.578125 158.058594 225.046875 159.183594 224.460938 160.28125 C 223.871094 161.378906 223.230469 162.445312 222.539062 163.480469 C 221.84375 164.515625 221.105469 165.515625 220.3125 166.480469 C 219.519531 167.441406 218.683594 168.363281 217.804688 169.246094 C 216.921875 170.125 216 170.960938 215.035156 171.75 C 214.070312 172.542969 213.070312 173.28125 212.03125 173.972656 C 210.996094 174.667969 209.929688 175.304688 208.828125 175.894531 C 207.726562 176.480469 206.601562 177.011719 205.449219 177.488281 C 204.296875 177.964844 203.125 178.386719 201.933594 178.746094 C 200.738281 179.109375 199.53125 179.410156 198.308594 179.652344 C 197.085938 179.894531 195.851562 180.078125 194.609375 180.199219 C 193.371094 180.324219 192.125 180.382812 190.878906 180.382812 C 189.632812 180.382812 188.386719 180.324219 187.148438 180.199219 C 185.90625 180.078125 184.671875 179.894531 183.449219 179.652344 C 182.226562 179.410156 181.019531 179.109375 179.824219 178.746094 C 178.632812 178.386719 177.460938 177.964844 176.308594 177.488281 C 175.15625 177.011719 174.03125 176.480469 172.929688 175.894531 C 171.832031 175.304688 170.761719 174.667969 169.726562 173.972656 C 168.6875 173.28125 167.6875 172.542969 166.722656 171.75 C 165.757812 170.960938 164.835938 170.125 163.953125 169.246094 C 163.074219 168.363281 162.238281 167.441406 161.445312 166.480469 C 160.65625 165.515625 159.914062 164.515625 159.21875 163.480469 C 158.527344 162.445312 157.886719 161.378906 157.296875 160.28125 C 156.710938 159.183594 156.179688 158.058594 155.699219 156.90625 C 155.222656 155.757812 154.804688 154.585938 154.441406 153.394531 C 154.082031 152.199219 153.777344 150.992188 153.535156 149.773438 C 153.292969 148.550781 153.109375 147.320312 152.984375 146.082031 C 152.863281 144.839844 152.804688 143.597656 152.804688 142.351562 C 152.804688 141.105469 152.863281 139.863281 152.984375 138.625 C 153.109375 137.386719 153.292969 136.15625 153.535156 134.933594 C 153.777344 133.710938 154.082031 132.503906 154.441406 131.3125 C 154.804688 130.121094 155.222656 128.949219 155.699219 127.800781 C 156.179688 126.648438 156.710938 125.523438 157.296875 124.425781 C 157.886719 123.328125 158.527344 122.257812 159.21875 121.222656 C 159.914062 120.1875 160.65625 119.1875 161.445312 118.226562 C 162.238281 117.261719 163.074219 116.339844 163.953125 115.460938 C 164.835938 114.582031 165.757812 113.746094 166.722656 112.953125 C 167.6875 112.164062 168.6875 111.421875 169.726562 110.730469 C 170.761719 110.039062 171.832031 109.398438 172.929688 108.8125 C 174.03125 108.226562 175.15625 107.695312 176.308594 107.214844 C 177.460938 106.738281 178.632812 106.320312 179.824219 105.960938 C 181.019531 105.597656 182.226562 105.296875 183.449219 105.050781 C 184.671875 104.808594 185.90625 104.628906 187.148438 104.503906 C 188.386719 104.382812 189.632812 104.320312 190.878906 104.320312 C 192.125 104.320312 193.371094 104.382812 194.609375 104.503906 C 195.851562 104.628906 197.085938 104.808594 198.308594 105.050781 C 199.53125 105.296875 200.738281 105.597656 201.933594 105.960938 C 203.125 106.320312 204.296875 106.738281 205.449219 107.214844 C 206.601562 107.695312 207.726562 108.226562 208.828125 108.8125 C 209.929688 109.398438 210.996094 110.039062 212.03125 110.730469 C 213.070312 111.421875 214.070312 112.164062 215.035156 112.953125 C 216 113.746094 216.921875 114.582031 217.804688 115.460938 C 218.683594 116.339844 219.519531 117.261719 220.3125 118.226562 C 221.105469 119.1875 221.84375 120.1875 222.539062 121.222656 C 223.230469 122.257812 223.871094 123.328125 224.460938 124.425781 C 225.046875 125.523438 225.578125 126.648438 226.058594 127.800781 C 226.535156 128.949219 226.953125 130.121094 227.316406 131.3125 C 227.679688 132.503906 227.980469 133.710938 228.222656 134.933594 C 228.46875 136.15625 228.648438 137.386719 228.773438 138.625 C 228.894531 139.863281 228.957031 141.105469 228.957031 142.351562 Z M 228.957031 142.351562 " fill-opacity="1" fill-rule="nonzero"/></svg>