<svg xmlns="http://www.w3.org/2000/svg" xmlns:xlink="http://www.w3.org/1999/xlink" width="400" zoomAndPan="magnify" viewBox="0 0 300 299.999988" height="400" preserveAspectRatio="xMidYMid meet" version="1.0"><defs><clipPath id="b08555a5a8"><path d="M 4.238281 69 L 295.988281 69 L 295.988281 170 L 4.238281 170 Z M 4.238281 69 " clip-rule="nonzero"/></clipPath></defs><path fill="#365b6d" d="M 192.34375 205.464844 C 187.4375 210.371094 180.601562 213.4375 173.066406 213.4375 L 126.808594 213.4375 C 119.359375 213.4375 112.527344 210.371094 107.53125 205.464844 C 103.679688 201.523438 100.960938 196.53125 99.910156 190.921875 L 20.183594 190.921875 C 18.253906 190.921875 16.328125 190.746094 14.488281 190.484375 L 14.488281 258.296875 C 14.488281 262.238281 16.152344 265.917969 18.78125 268.546875 C 21.410156 271.175781 25 272.839844 29.03125 272.839844 L 270.929688 272.839844 C 274.871094 272.839844 278.550781 271.175781 281.179688 268.546875 C 283.808594 265.917969 285.472656 262.238281 285.472656 258.296875 L 285.472656 190.484375 C 283.632812 190.746094 281.707031 190.921875 279.777344 190.921875 L 200.050781 190.921875 C 199 196.53125 196.285156 201.523438 192.429688 205.378906 Z M 192.34375 205.464844 " fill-opacity="1" fill-rule="evenodd"/><path fill="#5cb6f9" d="M 173.066406 192.5 C 174.820312 192.5 176.394531 191.796875 177.535156 190.660156 L 177.621094 190.570312 C 178.761719 189.433594 179.460938 187.855469 179.460938 186.105469 L 179.460938 174.714844 C 179.460938 172.960938 178.761719 171.386719 177.621094 170.246094 L 177.535156 170.246094 C 176.394531 169.105469 174.820312 168.320312 173.066406 168.320312 L 126.808594 168.320312 C 125.144531 168.320312 123.476562 169.105469 122.339844 170.246094 C 121.199219 171.386719 120.5 172.960938 120.5 174.714844 L 120.5 186.105469 C 120.5 187.855469 121.199219 189.433594 122.339844 190.570312 L 122.339844 190.660156 C 123.476562 191.796875 125.054688 192.5 126.808594 192.5 Z M 173.066406 192.5 " fill-opacity="1" fill-rule="evenodd"/><g clip-path="url(#b08555a5a8)"><path fill="#289dd2" d="M 173.066406 147.378906 C 180.601562 147.378906 187.4375 150.445312 192.429688 155.351562 L 192.429688 155.4375 C 196.285156 159.292969 199 164.289062 200.050781 169.894531 L 279.78125 169.894531 C 284.160156 169.894531 288.101562 168.144531 290.992188 165.25 L 291.082031 165.25 C 293.886719 162.359375 295.726562 158.417969 295.726562 153.949219 L 295.726562 85.523438 C 295.726562 81.054688 293.886719 77.113281 291.082031 74.222656 L 290.992188 74.222656 C 288.101562 71.332031 284.160156 69.578125 279.777344 69.578125 L 20.183594 69.578125 C 15.800781 69.578125 11.773438 71.332031 8.96875 74.222656 L 8.882812 74.222656 C 5.988281 77.113281 4.238281 81.054688 4.238281 85.523438 L 4.238281 153.949219 C 4.238281 158.417969 5.988281 162.359375 8.882812 165.25 L 8.96875 165.25 C 11.773438 168.144531 15.800781 169.894531 20.183594 169.894531 L 99.910156 169.894531 C 100.875 164.289062 103.679688 159.292969 107.53125 155.351562 C 112.4375 150.445312 119.273438 147.378906 126.808594 147.378906 Z M 173.066406 147.378906 " fill-opacity="1" fill-rule="evenodd"/></g><path fill="#289dd2" d="M 109.898438 84.386719 L 190.0625 84.386719 L 190.0625 54.507812 C 190.0625 52.84375 189.363281 51.355469 188.3125 50.214844 C 187.171875 49.078125 185.683594 48.464844 184.019531 48.464844 L 115.945312 48.464844 C 114.277344 48.464844 112.703125 49.078125 111.652344 50.214844 C 110.511719 51.269531 109.898438 52.84375 109.898438 54.507812 Z M 197.6875 105.414062 L 102.277344 105.414062 C 98.507812 105.414062 95.179688 103.921875 92.8125 101.46875 C 90.359375 99.015625 88.871094 95.6875 88.871094 92.007812 L 88.871094 54.507812 C 88.871094 47.148438 91.9375 40.316406 96.84375 35.410156 C 101.75 30.503906 108.585938 27.4375 115.945312 27.4375 L 184.019531 27.4375 C 191.464844 27.4375 198.210938 30.503906 203.117188 35.410156 C 208.023438 40.316406 211.089844 47.0625 211.089844 54.507812 L 211.089844 92.007812 C 211.089844 95.6875 209.601562 99.015625 207.148438 101.46875 C 204.695312 103.921875 201.367188 105.414062 197.6875 105.414062 Z M 197.6875 105.414062 " fill-opacity="1" fill-rule="nonzero"/></svg>