<svg xmlns="http://www.w3.org/2000/svg" xmlns:xlink="http://www.w3.org/1999/xlink" width="400" zoomAndPan="magnify" viewBox="0 0 300 299.999988" height="400" preserveAspectRatio="xMidYMid meet" version="1.0"><defs><clipPath id="972d8f09a1"><path d="M 0 40.3125 L 299 40.3125 L 299 260.0625 L 0 260.0625 Z M 0 40.3125 " clip-rule="nonzero"/></clipPath></defs><path fill="#365b6d" d="M 284.347656 115.351562 L 284.347656 210.160156 L 239.511719 255.074219 L 5.378906 255.074219 L 5.378906 115.351562 L 284.347656 115.351562 " fill-opacity="1" fill-rule="nonzero"/><path fill="#5cb6f9" d="M 284.347656 210.160156 L 239.511719 255.074219 C 245.660156 239.082031 246.648438 223.949219 239.511719 210.160156 C 253.273438 203.011719 268.382812 204.003906 284.347656 210.160156 " fill-opacity="1" fill-rule="nonzero"/><path fill="#289dd2" d="M 293.980469 100.378906 C 266.316406 156.851562 231.957031 183.175781 174.421875 200.183594 C 138.902344 151.765625 127.453125 107.214844 139.554688 45.488281 C 197.296875 50.941406 244.71875 69.710938 293.980469 100.378906 " fill-opacity="1" fill-rule="nonzero"/><path fill="#5cb6f9" d="M 232.367188 136.460938 C 226.214844 154.742188 206.4375 164.566406 188.1875 158.40625 C 169.9375 152.246094 160.128906 132.429688 166.277344 114.148438 C 172.429688 95.871094 192.210938 86.042969 210.460938 92.203125 C 228.707031 98.367188 238.515625 118.179688 232.367188 136.460938 " fill-opacity="1" fill-rule="nonzero"/><path fill="#289dd2" d="M 213.484375 130.085938 C 210.847656 137.921875 202.371094 142.132812 194.550781 139.492188 C 186.730469 136.851562 182.523438 128.359375 185.160156 120.527344 C 187.796875 112.691406 196.273438 108.480469 204.09375 111.117188 C 211.917969 113.757812 216.121094 122.25 213.484375 130.085938 " fill-opacity="1" fill-rule="nonzero"/><g clip-path="url(#972d8f09a1)"><path fill="#f4f6fc" d="M 10.359375 205.171875 L 35.269531 205.171875 C 38.019531 205.171875 40.25 202.9375 40.25 200.183594 C 40.25 197.425781 38.019531 195.191406 35.269531 195.191406 L 10.359375 195.191406 L 10.359375 120.339844 L 132.46875 120.339844 C 137.007812 145.988281 147.585938 170.09375 164.777344 195.191406 L 154.824219 195.191406 C 152.074219 195.191406 149.84375 197.425781 149.84375 200.183594 C 149.84375 202.9375 152.074219 205.171875 154.824219 205.171875 L 174.753906 205.171875 C 175.589844 205.171875 176.375 204.960938 177.074219 204.597656 C 224.03125 190.519531 255.109375 169.964844 279.363281 135.363281 L 279.363281 203.175781 C 263.519531 198.414062 249.675781 199.261719 237.21875 205.730469 C 234.777344 207 233.824219 210.011719 235.089844 212.460938 C 240.660156 223.21875 240.96875 235.550781 236.023438 250.082031 L 10.359375 250.082031 Z M 143.601562 50.914062 C 193.660156 56.304688 238.398438 72.261719 287.488281 102.234375 C 274.441406 127.859375 259.996094 146.675781 242.25 161.21875 C 225.078125 175.289062 204.078125 185.871094 176.375 194.382812 C 143.324219 148.199219 133.691406 106.097656 143.601562 50.914062 Z M 248.996094 238.511719 C 250.210938 229.230469 249.253906 220.664062 246.117188 212.667969 C 254.710938 209.4375 264.285156 209.332031 275.121094 212.34375 Z M 0.398438 115.351562 L 0.398438 255.074219 C 0.398438 257.828125 2.628906 260.0625 5.378906 260.0625 L 239.511719 260.0625 C 240.832031 260.0625 242.101562 259.535156 243.035156 258.601562 L 287.867188 213.691406 C 288.800781 212.753906 289.328125 211.484375 289.328125 210.160156 L 289.328125 119.71875 C 292.46875 114.304688 295.503906 108.601562 298.453125 102.578125 C 299.582031 100.277344 298.785156 97.496094 296.609375 96.140625 C 243.144531 62.855469 194.847656 45.699219 140.023438 40.523438 C 137.472656 40.285156 135.15625 42.011719 134.664062 44.53125 C 129.980469 68.421875 128.675781 89.964844 131.015625 110.359375 L 5.378906 110.359375 C 2.628906 110.359375 0.398438 112.59375 0.398438 115.351562 " fill-opacity="1" fill-rule="nonzero"/></g><path fill="#f4f6fc" d="M 85.085938 195.191406 L 55.195312 195.191406 C 52.445312 195.191406 50.214844 197.425781 50.214844 200.183594 C 50.214844 202.9375 52.445312 205.171875 55.195312 205.171875 L 85.085938 205.171875 C 87.835938 205.171875 90.066406 202.9375 90.066406 200.183594 C 90.066406 197.425781 87.835938 195.191406 85.085938 195.191406 " fill-opacity="1" fill-rule="nonzero"/><path fill="#f4f6fc" d="M 134.898438 195.191406 L 105.011719 195.191406 C 102.257812 195.191406 100.027344 197.425781 100.027344 200.183594 C 100.027344 202.9375 102.257812 205.171875 105.011719 205.171875 L 134.898438 205.171875 C 137.652344 205.171875 139.882812 202.9375 139.882812 200.183594 C 139.882812 197.425781 137.652344 195.191406 134.898438 195.191406 " fill-opacity="1" fill-rule="nonzero"/><path fill="#f4f6fc" d="M 171 115.742188 C 175.199219 103.257812 186.867188 95.359375 199.347656 95.359375 C 202.503906 95.359375 205.714844 95.867188 208.867188 96.933594 C 224.484375 102.207031 232.910156 119.222656 227.648438 134.867188 C 222.382812 150.511719 205.398438 158.953125 189.777344 153.675781 C 174.160156 148.40625 165.734375 131.386719 171 115.742188 Z M 199.289062 165.230469 C 215.929688 165.230469 231.488281 154.699219 237.085938 138.054688 C 244.105469 117.195312 232.875 94.507812 212.050781 87.476562 C 191.226562 80.445312 168.574219 91.695312 161.554688 112.554688 C 154.539062 133.414062 165.773438 156.105469 186.59375 163.136719 C 190.800781 164.558594 195.078125 165.230469 199.289062 165.230469 " fill-opacity="1" fill-rule="nonzero"/><path fill="#f4f6fc" d="M 189.882812 122.121094 C 191.28125 117.957031 195.167969 115.324219 199.332031 115.324219 C 200.382812 115.324219 201.453125 115.496094 202.503906 115.847656 C 207.710938 117.605469 210.519531 123.277344 208.765625 128.492188 C 207.011719 133.707031 201.347656 136.519531 196.140625 134.761719 C 190.933594 133.007812 188.128906 127.332031 189.882812 122.121094 Z M 199.308594 145.265625 C 207.625 145.265625 215.40625 140.003906 218.203125 131.679688 C 221.714844 121.25 216.097656 109.90625 205.6875 106.390625 C 195.273438 102.878906 183.949219 108.5 180.4375 118.929688 C 176.929688 129.359375 182.546875 140.707031 192.957031 144.222656 C 195.0625 144.929688 197.199219 145.265625 199.308594 145.265625 " fill-opacity="1" fill-rule="nonzero"/></svg>