<svg xmlns="http://www.w3.org/2000/svg" xmlns:xlink="http://www.w3.org/1999/xlink" width="400" zoomAndPan="magnify" viewBox="0 0 300 299.999988" height="400" preserveAspectRatio="xMidYMid meet" version="1.0"><defs><clipPath id="f839ccc1f6"><path d="M 2.707031 2.707031 L 297.457031 2.707031 L 297.457031 297.457031 L 2.707031 297.457031 Z M 2.707031 2.707031 " clip-rule="nonzero"/></clipPath></defs><g clip-path="url(#f839ccc1f6)"><path fill="#ec0829" d="M 150.082031 2.707031 C 157.960938 2.707031 164.945312 12.5625 172.480469 13.792969 C 180.019531 15.019531 189.566406 7.859375 196.65625 10.21875 C 203.746094 12.578125 206.988281 24 213.539062 27.394531 C 220.085938 30.789062 231.210938 26.816406 237.113281 31.136719 C 243.023438 35.46875 242.558594 47.265625 247.726562 52.433594 C 252.890625 57.59375 264.683594 57.128906 269.015625 63.039062 C 273.335938 68.941406 269.363281 80.066406 272.757812 86.621094 C 276.152344 93.164062 287.574219 96.40625 289.933594 103.496094 C 292.292969 110.585938 285.132812 120.132812 286.359375 127.671875 C 287.589844 135.207031 297.449219 142.191406 297.449219 150.082031 C 297.449219 157.960938 287.589844 164.945312 286.359375 172.480469 C 285.132812 180.019531 292.292969 189.566406 289.933594 196.65625 C 287.574219 203.746094 276.152344 206.988281 272.757812 213.539062 C 269.363281 220.085938 273.335938 231.210938 269.015625 237.113281 C 264.683594 243.023438 252.890625 242.558594 247.726562 247.726562 C 242.558594 252.890625 243.023438 264.683594 237.113281 269.015625 C 231.210938 273.335938 220.085938 269.363281 213.539062 272.757812 C 206.988281 276.152344 203.746094 287.574219 196.65625 289.933594 C 189.566406 292.292969 180.019531 285.132812 172.480469 286.359375 C 164.945312 287.589844 157.960938 297.449219 150.082031 297.449219 C 142.191406 297.449219 135.207031 287.589844 127.671875 286.359375 C 120.132812 285.132812 110.585938 292.292969 103.496094 289.933594 C 96.40625 287.574219 93.164062 276.152344 86.621094 272.757812 C 80.066406 269.363281 68.941406 273.335938 63.039062 269.015625 C 57.128906 264.683594 57.59375 252.890625 52.433594 247.726562 C 47.265625 242.558594 35.46875 243.023438 31.136719 237.113281 C 26.816406 231.210938 30.789062 220.085938 27.394531 213.539062 C 24 206.988281 12.578125 203.746094 10.21875 196.65625 C 7.859375 189.566406 15.019531 180.019531 13.792969 172.480469 C 12.5625 164.945312 2.707031 157.960938 2.707031 150.082031 C 2.707031 142.191406 12.5625 135.207031 13.792969 127.671875 C 15.019531 120.132812 7.859375 110.585938 10.21875 103.496094 C 12.578125 96.40625 24 93.164062 27.394531 86.621094 C 30.789062 80.066406 26.816406 68.941406 31.136719 63.039062 C 35.46875 57.128906 47.265625 57.59375 52.433594 52.433594 C 57.59375 47.265625 57.128906 35.46875 63.039062 31.136719 C 68.941406 26.816406 80.066406 30.789062 86.621094 27.394531 C 93.164062 24 96.40625 12.578125 103.496094 10.21875 C 110.585938 7.859375 120.132812 15.019531 127.671875 13.792969 C 135.207031 12.5625 142.191406 2.707031 150.082031 2.707031 Z M 150.082031 2.707031 " fill-opacity="1" fill-rule="evenodd"/></g><path fill="#fefefe" d="M 174.320312 113.855469 L 194.0625 113.855469 C 204.105469 113.855469 212.320312 122.070312 212.320312 132.125 L 212.320312 182.113281 C 212.320312 192.15625 204.105469 200.378906 194.0625 200.378906 L 145.1875 200.378906 C 135.144531 200.378906 126.921875 192.15625 126.921875 182.113281 L 126.921875 132.125 C 126.921875 127.605469 128.582031 123.453125 131.324219 120.261719 L 131.351562 120.238281 C 131.53125 120.027344 131.714844 119.824219 131.902344 119.621094 C 144.382812 105.742188 153.148438 93.921875 161.679688 79.457031 C 165.441406 73.085938 171.628906 69.867188 176.183594 71.097656 C 191.585938 75.257812 182.355469 100.824219 174.320312 113.855469 Z M 174.320312 113.855469 " fill-opacity="1" fill-rule="evenodd"/><path fill="#fefefe" d="M 102.09375 113.855469 C 109.933594 113.855469 116.347656 120.273438 116.347656 128.117188 L 116.347656 186.117188 C 116.347656 193.957031 109.933594 200.378906 102.09375 200.378906 C 94.25 200.378906 87.832031 193.957031 87.832031 186.117188 L 87.832031 128.117188 C 87.832031 120.273438 94.25 113.855469 102.09375 113.855469 Z M 102.09375 113.855469 " fill-opacity="1" fill-rule="evenodd"/><path fill="#fefefe" d="M 150.082031 234.078125 L 154.933594 246.652344 L 168.386719 247.378906 L 157.925781 255.882812 L 161.394531 268.910156 L 150.082031 261.589844 L 138.757812 268.910156 L 142.226562 255.882812 L 131.765625 247.378906 L 145.222656 246.652344 Z M 150.082031 234.078125 " fill-opacity="1" fill-rule="evenodd"/><path fill="#fefefe" d="M 107.15625 230.765625 L 110.625 239.742188 L 120.230469 240.265625 L 112.765625 246.335938 L 115.242188 255.640625 L 107.15625 250.40625 L 99.074219 255.640625 L 101.550781 246.335938 L 94.078125 240.265625 L 103.691406 239.742188 Z M 107.15625 230.765625 " fill-opacity="1" fill-rule="evenodd"/><path fill="#fefefe" d="M 192.996094 230.765625 L 196.460938 239.742188 L 206.074219 240.265625 L 198.601562 246.335938 L 201.078125 255.640625 L 192.996094 250.40625 L 184.910156 255.640625 L 187.386719 246.335938 L 179.921875 240.265625 L 189.527344 239.742188 Z M 192.996094 230.765625 " fill-opacity="1" fill-rule="evenodd"/><path fill="#fefefe" d="M 150.082031 36.78125 C 181.363281 36.78125 209.691406 49.460938 230.195312 69.957031 C 250.699219 90.464844 263.382812 118.789062 263.382812 150.082031 C 263.382812 181.363281 250.699219 209.691406 230.195312 230.195312 C 225 235.386719 219.304688 240.078125 213.183594 244.1875 L 213.183594 235.804688 C 217.496094 232.621094 221.558594 229.121094 225.34375 225.34375 C 244.601562 206.082031 256.519531 179.464844 256.519531 150.082031 C 256.519531 120.6875 244.601562 94.078125 225.34375 74.808594 C 206.082031 55.550781 179.464844 43.632812 150.082031 43.632812 C 120.6875 43.632812 94.078125 55.550781 74.808594 74.808594 C 55.550781 94.078125 43.632812 120.6875 43.632812 150.082031 C 43.632812 179.464844 55.550781 206.082031 74.808594 225.34375 C 78.59375 229.121094 82.65625 232.621094 86.972656 235.804688 L 86.972656 244.1875 C 80.851562 240.078125 75.152344 235.386719 69.957031 230.195312 C 49.460938 209.691406 36.78125 181.363281 36.78125 150.082031 C 36.78125 118.789062 49.460938 90.464844 69.957031 69.957031 C 90.464844 49.460938 118.789062 36.78125 150.082031 36.78125 Z M 150.082031 36.78125 " fill-opacity="1" fill-rule="nonzero"/></svg>