<svg xmlns="http://www.w3.org/2000/svg" xmlns:xlink="http://www.w3.org/1999/xlink" width="400" zoomAndPan="magnify" viewBox="0 0 300 299.999988" height="400" preserveAspectRatio="xMidYMid meet" version="1.0"><defs><clipPath id="bff418649f"><path d="M 2.535156 2.535156 L 297.28125 2.535156 L 297.28125 297.28125 L 2.535156 297.28125 Z M 2.535156 2.535156 " clip-rule="nonzero"/></clipPath></defs><g clip-path="url(#bff418649f)"><path fill="#669900" d="M 297.28125 149.90625 C 297.28125 157.097656 296.765625 164.171875 295.765625 171.089844 C 292.335938 194.925781 283.199219 216.921875 269.785156 235.644531 C 260.355469 248.8125 248.8125 260.355469 235.644531 269.785156 C 216.921875 283.199219 194.925781 292.335938 171.089844 295.765625 C 164.171875 296.765625 157.097656 297.28125 149.90625 297.28125 C 68.511719 297.28125 2.535156 231.300781 2.535156 149.90625 C 2.535156 68.511719 68.511719 2.535156 149.90625 2.535156 C 231.300781 2.535156 297.28125 68.511719 297.28125 149.90625 " fill-opacity="1" fill-rule="nonzero"/></g><path fill="#336600" d="M 181.074219 56.402344 L 56.402344 181.074219 L 171.089844 295.765625 C 194.925781 292.335938 216.921875 283.199219 235.644531 269.785156 C 248.8125 260.355469 260.355469 248.8125 269.785156 235.644531 C 283.199219 216.921875 292.335938 194.925781 295.765625 171.089844 L 181.074219 56.402344 " fill-opacity="1" fill-rule="nonzero"/><path fill="#ffffff" d="M 181.074219 118.738281 L 181.074219 56.402344 L 118.738281 56.402344 L 118.738281 118.738281 L 56.402344 118.738281 L 56.402344 181.074219 L 118.738281 181.074219 L 118.738281 243.410156 L 181.074219 243.410156 L 181.074219 181.074219 L 243.410156 181.074219 L 243.410156 118.738281 L 181.074219 118.738281 " fill-opacity="1" fill-rule="nonzero"/></svg>