<svg xmlns="http://www.w3.org/2000/svg" xmlns:xlink="http://www.w3.org/1999/xlink" width="400" zoomAndPan="magnify" viewBox="0 0 300 299.999988" height="400" preserveAspectRatio="xMidYMid meet" version="1.0"><defs><clipPath id="d660988857"><path d="M 49 245 L 151 245 L 151 296.003906 L 49 296.003906 Z M 49 245 " clip-rule="nonzero"/></clipPath><clipPath id="1882ffd959"><path d="M 14.273438 34 L 101 34 L 101 151 L 14.273438 151 Z M 14.273438 34 " clip-rule="nonzero"/></clipPath><clipPath id="ffacc24f68"><path d="M 14.273438 119 L 131 119 L 131 206 L 14.273438 206 Z M 14.273438 119 " clip-rule="nonzero"/></clipPath><clipPath id="bdf1212f0d"><path d="M 120 4.253906 L 226 4.253906 L 226 109 L 120 109 Z M 120 4.253906 " clip-rule="nonzero"/></clipPath><clipPath id="4412632c47"><path d="M 14.273438 58 L 73 58 L 73 151 L 14.273438 151 Z M 14.273438 58 " clip-rule="nonzero"/></clipPath><clipPath id="189be4cbbc"><path d="M 14.273438 119 L 128 119 L 128 206 L 14.273438 206 Z M 14.273438 119 " clip-rule="nonzero"/></clipPath><clipPath id="2262d5dd14"><path d="M 120 4.253906 L 226 4.253906 L 226 109 L 120 109 Z M 120 4.253906 " clip-rule="nonzero"/></clipPath><clipPath id="2fded75c78"><path d="M 150 185 L 261 185 L 261 296.003906 L 150 296.003906 Z M 150 185 " clip-rule="nonzero"/></clipPath><clipPath id="093cc086b0"><path d="M 150 191 L 255 191 L 255 296.003906 L 150 296.003906 Z M 150 191 " clip-rule="nonzero"/></clipPath><clipPath id="29e864c1e8"><path d="M 205 114 L 285.773438 114 L 285.773438 196 L 205 196 Z M 205 114 " clip-rule="nonzero"/></clipPath><clipPath id="98e76b4ef3"><path d="M 205 126 L 285.773438 126 L 285.773438 196 L 205 196 Z M 205 126 " clip-rule="nonzero"/></clipPath></defs><path fill="#ecf5f4" d="M 155.300781 225.582031 L 44.710938 225.582031 C 39.15625 225.582031 34.65625 221.082031 34.65625 215.519531 C 34.65625 209.960938 39.15625 205.460938 44.710938 205.460938 L 155.300781 205.460938 C 160.859375 205.460938 165.355469 209.960938 165.355469 215.519531 C 165.355469 221.082031 160.859375 225.582031 155.300781 225.582031 " fill-opacity="1" fill-rule="nonzero"/><path fill="#ecf5f4" d="M 155.300781 245.703125 L 44.710938 245.703125 C 39.15625 245.703125 34.65625 241.203125 34.65625 235.640625 C 34.65625 230.082031 39.15625 225.582031 44.710938 225.582031 L 155.300781 225.582031 C 160.859375 225.582031 165.355469 230.082031 165.355469 235.640625 C 165.355469 241.203125 160.859375 245.703125 155.300781 245.703125 " fill-opacity="1" fill-rule="nonzero"/><g clip-path="url(#d660988857)"><path fill="#d2dbda" d="M 100.007812 296.003906 C 72.242188 296.003906 49.738281 273.484375 49.738281 245.703125 L 150.273438 245.703125 C 150.273438 273.484375 127.773438 296.003906 100.007812 296.003906 " fill-opacity="1" fill-rule="nonzero"/></g><path fill="#66cde1" d="M 150.273438 116.039062 C 153.339844 113.265625 155.300781 109.316406 155.300781 104.855469 C 155.300781 96.527344 148.546875 89.765625 140.222656 89.765625 C 131.894531 89.765625 125.140625 96.527344 125.140625 104.855469 C 125.140625 109.316406 127.105469 113.265625 130.167969 116.039062 L 130.167969 119.949219 L 100.007812 119.949219 L 100.007812 150.128906 L 103.914062 150.128906 C 106.683594 147.0625 110.628906 145.097656 115.085938 145.097656 C 123.414062 145.097656 130.167969 151.859375 130.167969 160.1875 C 130.167969 168.519531 123.414062 175.28125 115.085938 175.28125 C 110.628906 175.28125 106.683594 173.3125 103.914062 170.25 L 100.007812 170.25 L 100.007812 205.460938 L 150.273438 205.460938 L 150.273438 188.996094 C 171.558594 173.453125 185.460938 148.359375 185.460938 119.949219 L 150.273438 119.949219 L 150.273438 116.039062 " fill-opacity="1" fill-rule="nonzero"/><g clip-path="url(#1882ffd959)"><path fill="#face08" d="M 49.738281 123.859375 C 46.675781 126.628906 44.710938 130.578125 44.710938 135.039062 C 44.710938 143.371094 51.464844 150.128906 59.792969 150.128906 C 68.117188 150.128906 74.871094 143.371094 74.871094 135.039062 C 74.871094 130.578125 72.910156 126.628906 69.847656 123.859375 L 69.847656 119.949219 L 100.007812 119.949219 L 100.007812 89.765625 L 96.097656 89.765625 C 93.332031 92.832031 89.382812 94.796875 84.925781 94.796875 C 76.601562 94.796875 69.847656 88.039062 69.847656 79.707031 C 69.847656 71.375 76.601562 64.617188 84.925781 64.617188 C 89.382812 64.617188 93.332031 66.582031 96.097656 69.644531 L 100.007812 69.644531 L 100.007812 34.433594 C 52.800781 34.433594 14.550781 72.710938 14.550781 119.949219 L 49.738281 119.949219 L 49.738281 123.859375 " fill-opacity="1" fill-rule="nonzero"/></g><g clip-path="url(#ffacc24f68)"><path fill="#f2556c" d="M 103.914062 170.25 C 106.683594 173.3125 110.628906 175.28125 115.085938 175.28125 C 123.414062 175.28125 130.167969 168.519531 130.167969 160.1875 C 130.167969 151.859375 123.414062 145.097656 115.085938 145.097656 C 110.628906 145.097656 106.683594 147.0625 103.914062 150.128906 L 100.007812 150.128906 L 100.007812 119.949219 L 69.847656 119.949219 L 69.847656 123.859375 C 72.910156 126.628906 74.871094 130.578125 74.871094 135.039062 C 74.871094 143.371094 68.117188 150.128906 59.792969 150.128906 C 51.464844 150.128906 44.710938 143.371094 44.710938 135.039062 C 44.710938 130.578125 46.675781 126.628906 49.738281 123.859375 L 49.738281 119.949219 L 14.550781 119.949219 C 14.550781 148.359375 28.433594 173.453125 49.738281 188.996094 L 49.738281 205.460938 L 100.007812 205.460938 L 100.007812 170.25 L 103.914062 170.25 " fill-opacity="1" fill-rule="nonzero"/></g><g clip-path="url(#bdf1212f0d)"><path fill="#f2556c" d="M 162.3125 4.253906 L 153.21875 38.265625 L 149.429688 37.246094 C 147.566406 33.570312 144.246094 30.640625 139.945312 29.503906 C 131.894531 27.339844 123.628906 32.117188 121.46875 40.171875 C 119.328125 48.226562 124.101562 56.5 132.152344 58.660156 C 136.429688 59.800781 140.769531 58.9375 144.226562 56.675781 L 147.996094 57.699219 L 140.203125 86.859375 L 169.320312 94.660156 L 170.34375 90.886719 C 168.105469 87.410156 167.222656 83.085938 168.378906 78.78125 C 170.539062 70.746094 178.804688 65.953125 186.855469 68.113281 C 194.90625 70.273438 199.679688 78.546875 197.519531 86.601562 C 196.359375 90.886719 193.453125 94.207031 189.761719 96.09375 L 188.761719 99.867188 L 222.75 108.984375 C 234.964844 63.378906 207.90625 16.476562 162.3125 4.253906 " fill-opacity="1" fill-rule="nonzero"/></g><path fill="#d2dbda" d="M 165.355469 215.519531 C 165.355469 218.292969 164.253906 220.804688 162.390625 222.613281 C 160.582031 224.480469 158.070312 225.582031 155.300781 225.582031 L 44.710938 225.582031 C 39.175781 225.582031 34.65625 221.042969 34.65625 215.519531 C 34.65625 212.75 35.757812 210.234375 37.625 208.425781 C 39.429688 206.5625 41.941406 205.460938 44.710938 205.460938 C 44.710938 210.980469 49.246094 215.519531 54.765625 215.519531 L 165.355469 215.519531 " fill-opacity="1" fill-rule="nonzero"/><path fill="#d2dbda" d="M 165.355469 235.640625 C 165.355469 238.410156 164.253906 240.925781 162.390625 242.734375 C 160.582031 244.601562 158.070312 245.703125 155.300781 245.703125 L 44.710938 245.703125 C 39.175781 245.703125 34.65625 241.164062 34.65625 235.640625 C 34.65625 232.871094 35.757812 230.355469 37.625 228.546875 C 39.429688 226.679688 41.941406 225.582031 44.710938 225.582031 C 44.710938 231.101562 49.246094 235.640625 54.765625 235.640625 L 165.355469 235.640625 " fill-opacity="1" fill-rule="nonzero"/><path fill="#8f9697" d="M 150.273438 245.703125 C 150.273438 249.179688 149.921875 252.539062 149.273438 255.761719 L 115.085938 255.761719 C 102.617188 255.761719 91.269531 260.851562 83.121094 269.042969 C 78.035156 274.113281 74.105469 280.402344 71.945312 287.457031 C 58.535156 278.398438 49.738281 263.050781 49.738281 245.703125 L 150.273438 245.703125 " fill-opacity="1" fill-rule="nonzero"/><path fill="#49b9da" d="M 172.640625 164.867188 C 166.808594 174.277344 159.230469 182.472656 150.273438 189.015625 L 150.273438 205.460938 L 100.007812 205.460938 L 100.007812 170.25 L 103.933594 170.25 C 106.703125 173.3125 110.609375 175.28125 115.085938 175.28125 C 119.957031 175.28125 124.335938 172.960938 127.046875 169.34375 C 131.367188 169.953125 135.746094 170.25 140.222656 170.25 C 151.589844 170.25 162.488281 168.382812 172.640625 164.867188 " fill-opacity="1" fill-rule="nonzero"/><g clip-path="url(#4412632c47)"><path fill="#f9af0b" d="M 72.164062 143.683594 C 69.433594 147.554688 64.917969 150.128906 59.792969 150.128906 C 51.445312 150.128906 44.710938 143.390625 44.710938 135.039062 C 44.710938 130.558594 46.675781 126.648438 49.738281 123.878906 L 49.738281 119.949219 L 14.550781 119.949219 C 14.550781 95.996094 24.40625 74.382812 40.234375 58.820312 C 39.882812 62.355469 39.683594 65.972656 39.683594 69.644531 C 39.683594 98.980469 52.191406 125.332031 72.164062 143.683594 " fill-opacity="1" fill-rule="nonzero"/></g><g clip-path="url(#189be4cbbc)"><path fill="#ef3a49" d="M 127.046875 169.34375 C 124.335938 172.960938 119.957031 175.28125 115.085938 175.28125 C 110.609375 175.28125 106.703125 173.3125 103.933594 170.25 L 100.007812 170.25 L 100.007812 205.460938 L 49.738281 205.460938 L 49.738281 189.015625 C 28.433594 173.414062 14.550781 148.378906 14.550781 119.949219 L 49.738281 119.949219 L 49.738281 123.878906 C 46.675781 126.648438 44.710938 130.558594 44.710938 135.039062 C 44.710938 143.390625 51.445312 150.128906 59.792969 150.128906 C 64.917969 150.128906 69.433594 147.554688 72.164062 143.683594 C 87.027344 157.378906 106.035156 166.632812 127.046875 169.34375 " fill-opacity="1" fill-rule="nonzero"/></g><g clip-path="url(#2262d5dd14)"><path fill="#ef3a49" d="M 225.617188 83.832031 C 225.933594 92.125 225.027344 100.59375 222.75 108.984375 L 188.78125 99.886719 L 189.78125 96.113281 C 193.453125 94.1875 196.359375 90.867188 197.539062 86.601562 C 199.699219 78.546875 194.90625 70.253906 186.875 68.132812 C 178.824219 65.972656 170.539062 70.746094 168.359375 78.800781 C 167.222656 83.066406 168.125 87.410156 170.324219 90.867188 L 169.320312 94.640625 L 140.222656 86.839844 L 148.015625 57.71875 L 144.246094 56.65625 C 140.769531 58.9375 136.449219 59.78125 132.132812 58.621094 C 124.082031 56.519531 119.308594 48.207031 121.46875 40.171875 C 123.628906 32.117188 131.875 27.339844 139.964844 29.503906 C 144.246094 30.660156 147.566406 33.589844 149.429688 37.246094 L 153.199219 38.265625 L 162.351562 4.253906 C 163.488281 4.546875 164.648438 4.902344 165.769531 5.316406 C 169.066406 41.429688 192.945312 71.550781 225.617188 83.832031 " fill-opacity="1" fill-rule="nonzero"/></g><g clip-path="url(#2fded75c78)"><path fill="#f8ec08" d="M 205.570312 265.824219 C 191.6875 265.824219 180.4375 254.5625 180.4375 240.671875 C 180.4375 226.78125 191.6875 215.519531 205.570312 215.519531 C 219.453125 215.519531 230.703125 226.78125 230.703125 240.671875 C 230.703125 254.5625 219.453125 265.824219 205.570312 265.824219 Z M 260.863281 254.503906 L 260.863281 226.839844 L 249.535156 226.839844 C 248.710938 224.226562 247.648438 221.75 246.414062 219.371094 L 254.445312 211.316406 L 234.90625 191.765625 L 226.855469 199.800781 C 224.480469 198.5625 222.003906 197.503906 219.394531 196.675781 L 219.394531 185.339844 L 191.746094 185.339844 L 191.746094 196.675781 C 189.132812 197.503906 186.660156 198.5625 184.285156 199.800781 L 176.234375 191.765625 L 156.695312 211.316406 L 164.726562 219.371094 C 163.488281 221.75 162.429688 224.226562 161.605469 226.839844 L 150.273438 226.839844 L 150.273438 254.503906 L 161.605469 254.503906 C 162.429688 257.117188 163.488281 259.59375 164.726562 261.972656 L 156.695312 270.007812 L 176.234375 289.578125 L 184.285156 281.542969 C 186.660156 282.78125 189.132812 283.839844 191.746094 284.664062 L 191.746094 296.003906 L 219.394531 296.003906 L 219.394531 284.664062 C 222.003906 283.839844 224.480469 282.78125 226.855469 281.542969 L 234.90625 289.578125 L 254.445312 270.007812 L 246.414062 261.972656 C 247.648438 259.59375 248.710938 257.117188 249.535156 254.503906 L 260.863281 254.503906 " fill-opacity="1" fill-rule="nonzero"/></g><g clip-path="url(#093cc086b0)"><path fill="#face08" d="M 251.300781 266.882812 C 244.941406 269.4375 237.988281 270.851562 230.703125 270.851562 C 228.542969 270.851562 226.382812 270.695312 224.261719 270.441406 C 218.292969 269.792969 212.617188 268.140625 207.375 265.722656 C 206.765625 265.824219 206.179688 265.824219 205.570312 265.824219 C 191.6875 265.824219 180.4375 254.5625 180.4375 240.671875 C 180.4375 240.0625 180.4375 239.472656 180.535156 238.863281 C 178.117188 233.617188 176.46875 227.9375 175.820312 221.964844 C 175.566406 219.84375 175.410156 217.683594 175.410156 215.519531 C 175.410156 208.230469 176.824219 201.273438 179.375 194.910156 L 176.253906 191.785156 L 156.714844 211.335938 L 164.746094 219.351562 C 163.488281 221.75 162.429688 224.226562 161.585938 226.839844 L 150.273438 226.839844 L 150.273438 254.503906 L 161.585938 254.503906 C 162.429688 257.117188 163.488281 259.59375 164.746094 261.992188 L 156.714844 270.007812 L 176.253906 289.558594 L 184.265625 281.523438 C 186.660156 282.78125 189.132812 283.839844 191.746094 284.6875 L 191.746094 296.003906 L 219.394531 296.003906 L 219.394531 284.6875 C 222.003906 283.839844 224.480469 282.78125 226.875 281.523438 L 234.886719 289.558594 L 254.425781 270.007812 L 251.300781 266.882812 " fill-opacity="1" fill-rule="nonzero"/></g><path fill="#f9af0b" d="M 205.570312 265.824219 C 191.6875 265.824219 180.4375 254.5625 180.4375 240.671875 C 180.4375 226.78125 191.6875 215.519531 205.570312 215.519531 C 219.453125 215.519531 230.703125 226.78125 230.703125 240.671875 C 230.703125 254.5625 219.453125 265.824219 205.570312 265.824219 Z M 205.570312 205.460938 C 186.109375 205.460938 170.382812 221.199219 170.382812 240.671875 C 170.382812 260.144531 186.109375 275.882812 205.570312 275.882812 C 225.027344 275.882812 240.757812 260.144531 240.757812 240.671875 C 240.757812 221.199219 225.027344 205.460938 205.570312 205.460938 " fill-opacity="1" fill-rule="nonzero"/><path fill="#f7980f" d="M 224.261719 270.441406 C 218.84375 273.917969 212.460938 275.882812 205.570312 275.882812 C 186.109375 275.882812 170.382812 260.144531 170.382812 240.671875 C 170.382812 233.773438 172.34375 227.390625 175.820312 221.964844 C 176.46875 227.9375 178.117188 233.617188 180.535156 238.863281 C 180.4375 239.472656 180.4375 240.0625 180.4375 240.671875 C 180.4375 254.5625 191.6875 265.824219 205.570312 265.824219 C 206.179688 265.824219 206.765625 265.824219 207.375 265.722656 C 212.617188 268.140625 218.292969 269.792969 224.261719 270.441406 " fill-opacity="1" fill-rule="nonzero"/><g clip-path="url(#29e864c1e8)"><path fill="#f8ec08" d="M 245.410156 165.21875 C 239.875 165.21875 235.359375 160.71875 235.359375 155.160156 C 235.359375 149.597656 239.875 145.097656 245.410156 145.097656 C 250.96875 145.097656 255.464844 149.597656 255.464844 155.160156 C 255.464844 160.71875 250.96875 165.21875 245.410156 165.21875 Z M 275.570312 155.160156 C 275.570312 153.273438 275.394531 151.445312 275.0625 149.65625 L 285.273438 143.742188 L 275.21875 126.332031 L 265.007812 132.226562 C 262.21875 129.851562 259 127.984375 255.464844 126.726562 L 255.464844 114.917969 L 235.359375 114.917969 L 235.359375 126.726562 C 231.84375 127.984375 228.621094 129.851562 225.835938 132.226562 L 215.625 126.332031 L 205.570312 143.742188 L 215.78125 149.65625 C 215.464844 151.445312 215.25 153.273438 215.25 155.160156 C 215.25 157.046875 215.464844 158.871094 215.78125 160.660156 L 205.570312 166.574219 L 215.625 183.984375 L 225.835938 178.089844 C 228.621094 180.464844 231.84375 182.332031 235.359375 183.589844 L 235.359375 195.398438 L 255.464844 195.398438 L 255.464844 183.589844 C 259 182.332031 262.21875 180.464844 265.007812 178.089844 L 275.21875 183.984375 L 285.273438 166.574219 L 275.0625 160.660156 C 275.394531 158.871094 275.570312 157.046875 275.570312 155.160156 " fill-opacity="1" fill-rule="nonzero"/></g><g clip-path="url(#98e76b4ef3)"><path fill="#face08" d="M 282.289062 164.804688 C 275.886719 168.285156 268.601562 170.25 260.863281 170.25 C 236.339844 170.25 216.390625 150.738281 215.683594 126.332031 L 215.625 126.332031 L 205.570312 143.742188 L 215.78125 149.675781 C 215.464844 151.445312 215.269531 153.292969 215.269531 155.160156 C 215.269531 157.023438 215.464844 158.871094 215.78125 160.640625 L 205.570312 166.574219 L 215.625 183.984375 L 225.835938 178.089844 C 228.640625 180.464844 231.863281 182.332031 235.378906 183.589844 L 235.378906 195.398438 L 255.484375 195.398438 L 255.484375 183.589844 C 259 182.332031 262.21875 180.464844 264.988281 178.089844 L 275.238281 183.984375 L 285.292969 166.574219 L 282.289062 164.804688 " fill-opacity="1" fill-rule="nonzero"/></g><path fill="#f9af0b" d="M 245.429688 165.21875 C 239.855469 165.21875 235.378906 160.679688 235.378906 155.160156 C 235.378906 149.636719 239.855469 145.097656 245.429688 145.097656 C 250.96875 145.097656 255.484375 149.636719 255.484375 155.160156 C 255.484375 160.679688 250.96875 165.21875 245.429688 165.21875 Z M 245.785156 135.039062 C 234.671875 135.039062 225.675781 144.039062 225.675781 155.160156 C 225.675781 166.28125 234.671875 175.28125 245.785156 175.28125 C 256.898438 175.28125 265.890625 166.28125 265.890625 155.160156 C 265.890625 144.039062 256.898438 135.039062 245.785156 135.039062 " fill-opacity="1" fill-rule="nonzero"/><path fill="#f7980f" d="M 225.835938 153.566406 C 225.792969 154.097656 225.675781 154.609375 225.675781 155.160156 C 225.675781 166.28125 234.671875 175.28125 245.785156 175.28125 C 250.910156 175.28125 255.503906 173.3125 259.058594 170.152344 C 245.667969 169.640625 233.765625 163.292969 225.835938 153.566406 " fill-opacity="1" fill-rule="nonzero"/></svg>