<svg xmlns="http://www.w3.org/2000/svg" xmlns:xlink="http://www.w3.org/1999/xlink" width="400" zoomAndPan="magnify" viewBox="0 0 300 299.999988" height="400" preserveAspectRatio="xMidYMid meet" version="1.0"><defs><clipPath id="c805eb5da9"><path d="M 3.183594 3.183594 L 206 3.183594 L 206 206 L 3.183594 206 Z M 3.183594 3.183594 " clip-rule="nonzero"/></clipPath><clipPath id="6d0bc5435c"><path d="M 170 165 L 297.183594 165 L 297.183594 297.183594 L 170 297.183594 Z M 170 165 " clip-rule="nonzero"/></clipPath><clipPath id="280d783c9c"><path d="M 211 211 L 297.183594 211 L 297.183594 297.183594 L 211 297.183594 Z M 211 211 " clip-rule="nonzero"/></clipPath></defs><path fill="#e9e9e9" d="M 251.5625 271.839844 L 48.804688 271.839844 C 37.617188 271.839844 28.53125 262.75 28.53125 251.5625 L 28.53125 48.804688 C 28.53125 37.597656 37.617188 28.53125 48.804688 28.53125 L 251.5625 28.53125 C 262.769531 28.53125 271.839844 37.597656 271.839844 48.804688 L 271.839844 251.5625 C 271.839844 262.75 262.769531 271.839844 251.5625 271.839844 " fill-opacity="1" fill-rule="nonzero"/><g clip-path="url(#c805eb5da9)"><path fill="#239172" d="M 205.945312 104.5625 C 205.945312 160.558594 160.558594 205.945312 104.5625 205.945312 C 48.566406 205.945312 3.183594 160.558594 3.183594 104.5625 C 3.183594 48.566406 48.566406 3.183594 104.5625 3.183594 C 160.558594 3.183594 205.945312 48.566406 205.945312 104.5625 " fill-opacity="1" fill-rule="nonzero"/></g><path fill="#2ab793" d="M 185.667969 104.5625 C 185.667969 149.351562 149.351562 185.667969 104.5625 185.667969 C 59.773438 185.667969 23.460938 149.351562 23.460938 104.5625 C 23.460938 59.773438 59.773438 23.460938 104.5625 23.460938 C 149.351562 23.460938 185.667969 59.773438 185.667969 104.5625 " fill-opacity="1" fill-rule="nonzero"/><path fill="#e9e9e9" d="M 48.804688 104.542969 L 48.804688 104.585938 C 78.785156 137.273438 130.34375 137.273438 160.324219 104.585938 L 160.324219 104.542969 C 130.34375 71.855469 78.785156 71.855469 48.804688 104.542969 " fill-opacity="1" fill-rule="nonzero"/><path fill="#c4c4c4" d="M 256.632812 58.945312 L 211.011719 58.945312 L 211.011719 48.804688 L 256.632812 48.804688 L 256.632812 58.945312 " fill-opacity="1" fill-rule="nonzero"/><path fill="#c4c4c4" d="M 256.632812 84.289062 L 221.152344 84.289062 L 221.152344 74.152344 L 256.632812 74.152344 L 256.632812 84.289062 " fill-opacity="1" fill-rule="nonzero"/><path fill="#c4c4c4" d="M 256.632812 109.632812 L 221.152344 109.632812 L 221.152344 99.496094 L 256.632812 99.496094 L 256.632812 109.632812 " fill-opacity="1" fill-rule="nonzero"/><path fill="#c4c4c4" d="M 256.632812 134.976562 L 221.152344 134.976562 L 221.152344 124.839844 L 256.632812 124.839844 L 256.632812 134.976562 " fill-opacity="1" fill-rule="nonzero"/><path fill="#c4c4c4" d="M 256.632812 160.324219 L 221.152344 160.324219 L 221.152344 150.183594 L 256.632812 150.183594 L 256.632812 160.324219 " fill-opacity="1" fill-rule="nonzero"/><path fill="#c4c4c4" d="M 256.632812 185.667969 L 226.21875 185.667969 L 226.21875 175.53125 L 256.632812 175.53125 L 256.632812 185.667969 " fill-opacity="1" fill-rule="nonzero"/><path fill="#c4c4c4" d="M 180.597656 231.289062 L 43.738281 231.289062 L 43.738281 221.152344 L 180.597656 221.152344 L 180.597656 231.289062 " fill-opacity="1" fill-rule="nonzero"/><path fill="#c4c4c4" d="M 200.875 251.5625 L 43.738281 251.5625 L 43.738281 241.425781 L 200.875 241.425781 L 200.875 251.5625 " fill-opacity="1" fill-rule="nonzero"/><path fill="#239172" d="M 140.046875 155.253906 L 69.082031 155.253906 L 69.082031 145.117188 L 140.046875 145.117188 L 140.046875 155.253906 " fill-opacity="1" fill-rule="nonzero"/><path fill="#239172" d="M 140.046875 64.011719 L 69.082031 64.011719 L 69.082031 53.875 L 140.046875 53.875 L 140.046875 64.011719 " fill-opacity="1" fill-rule="nonzero"/><g clip-path="url(#6d0bc5435c)"><path fill="#3f3f3f" d="M 185.667969 165.390625 L 226.21875 211.011719 L 232.160156 211.011719 C 234.851562 211.011719 237.425781 212.082031 239.328125 213.984375 L 291.9375 266.59375 C 295.304688 269.960938 297.183594 274.511719 297.183594 279.265625 C 297.183594 289.164062 289.164062 297.183594 279.265625 297.183594 C 274.511719 297.183594 269.960938 295.304688 266.59375 291.9375 L 213.984375 239.328125 C 212.082031 237.425781 211.011719 234.851562 211.011719 232.160156 L 211.011719 226.21875 L 170.460938 180.597656 " fill-opacity="1" fill-rule="nonzero"/></g><path fill="#4a4a56" d="M 119.769531 104.5625 C 119.769531 112.960938 112.960938 119.769531 104.5625 119.769531 C 96.167969 119.769531 89.355469 112.960938 89.355469 104.5625 C 89.355469 96.167969 96.167969 89.355469 104.5625 89.355469 C 112.960938 89.355469 119.769531 96.167969 119.769531 104.5625 " fill-opacity="1" fill-rule="nonzero"/><g clip-path="url(#280d783c9c)"><path fill="#2b2b2b" d="M 297.183594 279.265625 C 297.183594 274.511719 295.304688 269.960938 291.9375 266.59375 L 239.328125 213.984375 C 237.425781 212.082031 234.851562 211.011719 232.160156 211.011719 L 226.21875 211.011719 L 211.011719 226.21875 L 211.011719 232.160156 C 211.011719 234.851562 212.082031 237.425781 213.984375 239.328125 L 266.59375 291.9375 C 269.960938 295.304688 274.511719 297.183594 279.265625 297.183594 C 289.164062 297.183594 297.183594 289.164062 297.183594 279.265625 " fill-opacity="1" fill-rule="nonzero"/></g></svg>